<?xml version="1.0" encoding="UTF-8"?>
<!DOCTYPE svg PUBLIC "-//W3C//DTD SVG 1.1//EN" "http://www.w3.org/Graphics/SVG/1.1/DTD/svg11.dtd">
<svg xmlns="http://www.w3.org/2000/svg" version="1.1" width="233px" height="84px" style="shape-rendering:geometricPrecision; text-rendering:geometricPrecision; image-rendering:optimizeQuality; fill-rule:evenodd; clip-rule:evenodd" xmlns:xlink="http://www.w3.org/1999/xlink">
<g><path style="opacity:0.037" fill="#f4f0e9" d="M 150.5,12.5 C 149.833,12.5 149.5,12.8333 149.5,13.5C 148.021,12.241 146.354,11.241 144.5,10.5C 143.688,9.00691 142.355,8.34024 140.5,8.5C 138.645,8.34024 137.312,9.00691 136.5,10.5C 134.589,10.5743 133.422,11.5743 133,13.5C 132.211,15.7116 132.378,17.7116 133.5,19.5C 134.543,22.0562 136.21,24.2228 138.5,26C 136.256,26.0496 134.589,26.8829 133.5,28.5C 132.18,27.0582 130.514,26.3915 128.5,26.5C 128.666,22.4862 128.499,18.4862 128,14.5C 127.167,13.6667 126.333,12.8333 125.5,12C 120.511,11.5007 115.511,11.3341 110.5,11.5C 110.5,16.5 110.5,21.5 110.5,26.5C 108.379,26.6747 106.379,26.3414 104.5,25.5C 104.167,25.5 103.833,25.5 103.5,25.5C 99.9235,25.2051 96.7568,26.2051 94,28.5C 89.4816,26.593 84.6483,25.9264 79.5,26.5C 78.596,27.209 78.2627,28.209 78.5,29.5C 78.1667,29.5 77.8333,29.5 77.5,29.5C 76.5222,29.189 75.8555,28.5223 75.5,27.5C 78.3693,25.1046 79.536,22.1046 79,18.5C 77.6891,15.8646 76.0224,13.5313 74,11.5C 73.3292,10.7476 72.4959,10.4142 71.5,10.5C 70.6879,9.00691 69.3545,8.34024 67.5,8.5C 65.6455,8.34024 64.3121,9.00691 63.5,10.5C 60.7079,11.3918 59.3746,13.3918 59.5,16.5C 54.2384,16.1953 49.0717,16.5286 44,17.5C 41.4926,26.2014 38.9926,34.8681 36.5,43.5C 36.631,44.2389 36.4643,44.9056 36,45.5C 33.8222,37.1222 31.4889,28.7889 29,20.5C 27.8333,19.3333 26.6667,18.1667 25.5,17C 20.5111,16.5007 15.5111,16.3341 10.5,16.5C 10.2627,17.791 10.596,18.791 11.5,19.5C 13.8333,29.5 16.1667,39.5 18.5,49.5C 17.6091,48.7387 16.9424,47.7387 16.5,46.5C 15.675,45.6143 14.675,45.281 13.5,45.5C 13.8076,47.924 13.4742,50.2573 12.5,52.5C 9.53436,50.3031 6.20102,48.9698 2.5,48.5C 1.33444,38.5166 1.16777,28.5166 2,18.5C 4.08391,18.4644 5.91725,19.4644 7.5,21.5C 6.93003,17.5786 8.5967,15.412 12.5,15C 19.9454,14.0902 27.2788,14.5902 34.5,16.5C 39.8591,14.5745 45.1925,13.5745 50.5,13.5C 52.1043,13.9391 53.6043,14.6057 55,15.5C 56.4923,13.8664 57.9923,12.1997 59.5,10.5C 57.2524,9.67598 57.0858,8.67598 59,7.5C 59.3333,7.83333 59.6667,8.16667 60,8.5C 67.8577,5.28889 75.191,6.28889 82,11.5C 82.1274,12.7766 81.6274,13.9433 80.5,15C 81.0085,16.1685 81.8419,17.0019 83,17.5C 83.2395,19.7612 83.4062,21.7612 83.5,23.5C 89.6913,21.4938 96.0246,19.9938 102.5,19C 103.931,18.5348 105.097,17.7014 106,16.5C 106.333,16.8333 106.667,17.1667 107,17.5C 107.067,14.953 107.901,12.7863 109.5,11C 115.691,10.7278 121.857,10.2278 128,9.5C 129.226,9.64477 130.393,9.9781 131.5,10.5C 138.451,6.05029 144.784,6.71696 150.5,12.5 Z M 65.5,12.5 C 66.4232,11.6971 67.4232,11.5304 68.5,12C 67.3816,13.0736 66.3816,14.2402 65.5,15.5C 62.9548,14.4508 62.9548,13.4508 65.5,12.5 Z M 38.5,16.5 C 39.8366,17.3149 40.8366,18.4815 41.5,20C 40.0563,21.7635 39.0563,23.7635 38.5,26C 37.451,26.4922 36.451,26.3256 35.5,25.5C 34.5258,23.2573 34.1924,20.924 34.5,18.5C 36.4832,18.8432 37.8166,18.1765 38.5,16.5 Z M 7.5,21.5 C 9.25517,23.8035 10.4218,26.4702 11,29.5C 11.3333,29.1667 11.6667,28.8333 12,28.5C 12.4962,30.0349 12.3295,31.5349 11.5,33C 12.2887,34.6255 13.2887,36.1255 14.5,37.5C 14.4316,38.8162 14.4316,40.1495 14.5,41.5C 13.1861,40.6872 12.0195,39.6872 11,38.5C 10.3811,35.9682 9.38109,33.6349 8,31.5C 7.50166,28.1832 7.33499,24.8499 7.5,21.5 Z M 108.5,23.5 C 109.773,24.0768 109.773,24.7435 108.5,25.5C 107.537,25.0302 107.537,24.3635 108.5,23.5 Z M 36.5,33.5 C 37.5735,34.2506 37.7401,35.2506 37,36.5C 35.2716,35.6477 35.105,34.6477 36.5,33.5 Z M 25.5,27.5 C 23.6544,29.3248 21.8211,30.9915 20,32.5C 18.7949,31.9288 17.6283,31.2621 16.5,30.5C 16.6236,29.8933 16.9569,29.56 17.5,29.5C 18.0032,25.4973 16.6699,22.3306 13.5,20C 16.5,19.3333 19.5,19.3333 22.5,20C 23.6422,22.4499 24.6422,24.9499 25.5,27.5 Z"/></g>
<g><path style="opacity:0.878" fill="#ad7eb2" d="M 71.5,10.5 C 68.8333,10.5 66.1667,10.5 63.5,10.5C 64.3121,9.00691 65.6455,8.34024 67.5,8.5C 69.3545,8.34024 70.6879,9.00691 71.5,10.5 Z"/></g>
<g><path style="opacity:0.812" fill="#cb8193" d="M 144.5,10.5 C 141.833,10.5 139.167,10.5 136.5,10.5C 137.312,9.00691 138.645,8.34024 140.5,8.5C 142.355,8.34024 143.688,9.00691 144.5,10.5 Z"/></g>
<g><path style="opacity:0.028" fill="#f3ece6" d="M 136.5,10.5 C 139.167,10.5 141.833,10.5 144.5,10.5C 148.381,14.5424 148.381,18.5424 144.5,22.5C 142.232,23.5443 139.899,23.711 137.5,23C 136.295,21.6244 134.962,20.4577 133.5,19.5C 133.129,15.9966 134.129,12.9966 136.5,10.5 Z M 138.5,13.5 C 139.773,14.0768 139.773,14.7435 138.5,15.5C 137.537,15.0302 137.537,14.3635 138.5,13.5 Z M 144.5,14.5 C 143.957,14.56 143.624,14.8933 143.5,15.5C 146.215,17.5505 146.048,19.2172 143,20.5C 141.943,18.7806 141.11,16.9472 140.5,15C 141.946,13.702 143.279,13.5354 144.5,14.5 Z M 137.5,17.5 C 140.962,19.1927 140.962,20.1927 137.5,20.5C 137.5,19.5 137.5,18.5 137.5,17.5 Z"/></g>
<g><path style="opacity:0.996" fill="#a03d70" d="M 133.5,28.5 C 133.5,33.5 133.5,38.5 133.5,43.5C 131.833,43.5 130.167,43.5 128.5,43.5C 128.5,53.1667 128.5,62.8333 128.5,72.5C 123.489,72.6659 118.489,72.4993 113.5,72C 112.667,71.1667 111.833,70.3333 111,69.5C 110.5,60.5062 110.334,51.5062 110.5,42.5C 109.5,42.5 108.5,42.5 107.5,42.5C 106.542,42.0472 105.708,41.3805 105,40.5C 104.501,35.5111 104.334,30.5111 104.5,25.5C 106.379,26.3414 108.379,26.6747 110.5,26.5C 110.5,21.5 110.5,16.5 110.5,11.5C 115.511,11.3341 120.511,11.5007 125.5,12C 126.333,12.8333 127.167,13.6667 128,14.5C 128.499,18.4862 128.666,22.4862 128.5,26.5C 130.514,26.3915 132.18,27.0582 133.5,28.5 Z M 123.5,27.5 C 124.718,28.1614 126.051,28.8281 127.5,29.5C 128.393,32.0841 128.726,34.7508 128.5,37.5C 125.428,37.1826 122.428,37.5159 119.5,38.5C 119.938,39.5063 120.604,39.5063 121.5,38.5C 121.833,39.3333 122.167,40.1667 122.5,41C 122.067,42.928 121.4,44.7613 120.5,46.5C 122.373,52.9435 123.04,59.6102 122.5,66.5C 119.5,66.5 116.5,66.5 113.5,66.5C 113.334,58.8261 113.5,51.1594 114,43.5C 115.016,44.6341 115.683,44.3008 116,42.5C 116.667,43.8333 117.333,45.1667 118,46.5C 118.167,45.8333 118.333,45.1667 118.5,44.5C 117.207,41.8563 115.873,39.1896 114.5,36.5C 113.808,37.0253 113.308,37.6919 113,38.5C 112.108,35.7163 110.942,33.0496 109.5,30.5C 110.779,28.8539 112.445,27.6872 114.5,27C 113.483,25.9505 113.316,24.7839 114,23.5C 114.333,24.1667 114.667,24.8333 115,25.5C 118.936,18.4633 120.436,19.13 119.5,27.5C 120.833,27.5 122.167,27.5 123.5,27.5 Z"/></g>
<g><path style="opacity:0.027" fill="#f5f0e8" d="M 150.5,12.5 C 153.918,14.2383 157.418,15.905 161,17.5C 161.5,17 162,16.5 162.5,16C 166.167,15.8333 169.833,15.6667 173.5,15.5C 180.404,15.6106 187.071,16.1106 193.5,17C 194.126,23.3744 194.126,29.7078 193.5,36C 194.487,37.6679 195.487,38.8346 196.5,39.5C 195.936,42.5648 195.269,45.5648 194.5,48.5C 193.076,46.4855 192.41,44.1522 192.5,41.5C 189.711,34.3838 187.211,27.0505 185,19.5C 184.292,18.6195 183.458,17.9528 182.5,17.5C 176.355,16.5098 170.022,16.1765 163.5,16.5C 163.277,20.1621 162.277,23.4954 160.5,26.5C 160.101,30.1165 159.101,33.4498 157.5,36.5C 155.978,43.2345 154.145,49.9012 152,56.5C 151.5,47.5062 151.334,38.5062 151.5,29.5C 151.167,29.5 150.833,29.5 150.5,29.5C 149.522,29.189 148.855,28.5223 148.5,27.5C 153.419,23.1596 153.752,18.493 149.5,13.5C 150.167,13.5 150.5,13.1667 150.5,12.5 Z M 160.5,26.5 C 159.571,27.9361 158.405,29.2695 157,30.5C 154.87,26.7257 155.037,23.059 157.5,19.5C 157.939,22.8231 158.939,25.1565 160.5,26.5 Z M 190.5,27.5 C 191.077,26.2267 191.743,26.2267 192.5,27.5C 192.03,28.463 191.363,28.463 190.5,27.5 Z M 157.5,36.5 C 156.279,37.0283 155.113,37.695 154,38.5C 152.578,35.9699 152.245,33.3033 153,30.5C 153.402,31.8721 153.902,33.2054 154.5,34.5C 155.274,35.7112 156.107,35.7112 157,34.5C 157.464,35.0944 157.631,35.7611 157.5,36.5 Z M 152.5,40.5 C 153.88,40.9623 154.547,41.9623 154.5,43.5C 154.101,45.1966 153.601,46.8632 153,48.5C 152.503,45.854 152.336,43.1873 152.5,40.5 Z M 174.5,31.5 C 176.76,32.2376 176.927,33.2376 175,34.5C 174.517,33.552 174.351,32.552 174.5,31.5 Z M 180.5,22.5 C 180.282,25.6118 180.782,28.6118 182,31.5C 180.382,31.1113 179.215,29.778 178.5,27.5C 175.656,29.1029 172.656,29.6029 169.5,29C 168.638,26.2656 167.805,26.0989 167,28.5C 166.505,25.4686 166.671,22.4686 167.5,19.5C 171.555,19.1758 175.555,19.5091 179.5,20.5C 179.863,21.1835 180.196,21.8501 180.5,22.5 Z"/></g>
<g><path style="opacity:0.973" fill="#792e8b" d="M 63.5,10.5 C 58.8164,16.7762 60.1498,21.1095 67.5,23.5C 73.082,23.0106 75.2486,20.0106 74,14.5C 73.3378,13.0161 72.5045,11.6828 71.5,10.5C 72.4959,10.4142 73.3292,10.7476 74,11.5C 76.0224,13.5313 77.6891,15.8646 79,18.5C 79.536,22.1046 78.3693,25.1046 75.5,27.5C 75.8555,28.5223 76.5222,29.189 77.5,29.5C 77.5,43.5 77.5,57.5 77.5,71.5C 72.8333,71.5 68.1667,71.5 63.5,71.5C 62.5416,71.0472 61.7083,70.3805 61,69.5C 60.831,56.3269 60.331,43.3269 59.5,30.5C 59.9887,29.0048 60.6554,27.6715 61.5,26.5C 66.4211,26.3536 66.4211,25.3536 61.5,23.5C 60.8333,21.5 60.1667,19.5 59.5,17.5C 59.5,17.1667 59.5,16.8333 59.5,16.5C 59.3746,13.3918 60.7079,11.3918 63.5,10.5 Z M 65.5,12.5 C 62.9548,13.4508 62.9548,14.4508 65.5,15.5C 66.3816,14.2402 67.3816,13.0736 68.5,12C 67.4232,11.5304 66.4232,11.6971 65.5,12.5 Z M 65.5,34.5 C 65.7394,32.5328 65.4061,30.6995 64.5,29C 67.053,28.1487 69.3863,28.482 71.5,30C 70.8742,30.7504 70.3742,31.5838 70,32.5C 69.2904,31.0267 68.1238,30.3601 66.5,30.5C 66.7678,32.099 66.4345,33.4324 65.5,34.5 Z M 64.5,41.5 C 65.1174,41.6107 65.6174,41.944 66,42.5C 66.4997,50.4931 66.6664,58.4931 66.5,66.5C 65.5,66.5 64.5,66.5 63.5,66.5C 63.4617,58.1781 63.7951,49.8448 64.5,41.5 Z"/></g>
<g><path style="opacity:0.025" fill="#f1ebe7" d="M 63.5,10.5 C 66.1667,10.5 68.8333,10.5 71.5,10.5C 72.5045,11.6828 73.3378,13.0161 74,14.5C 75.2486,20.0106 73.082,23.0106 67.5,23.5C 60.1498,21.1095 58.8164,16.7762 63.5,10.5 Z M 65.5,12.5 C 62.9548,13.4508 62.9548,14.4508 65.5,15.5C 66.3816,14.2402 67.3816,13.0736 68.5,12C 67.4232,11.5304 66.4232,11.6971 65.5,12.5 Z"/></g>
<g><path style="opacity:0.986" fill="#ae3759" d="M 144.5,10.5 C 146.354,11.241 148.021,12.241 149.5,13.5C 153.752,18.493 153.419,23.1596 148.5,27.5C 148.855,28.5223 149.522,29.189 150.5,29.5C 150.5,39.5 150.5,49.5 150.5,59.5C 150.073,62.3761 149.406,65.2094 148.5,68C 148.759,69.2613 149.426,70.2613 150.5,71C 155.823,71.4994 161.156,71.666 166.5,71.5C 156.681,72.494 146.681,72.8274 136.5,72.5C 135.878,71.3734 135.045,70.3734 134,69.5C 133.5,60.8397 133.334,52.1731 133.5,43.5C 133.5,38.5 133.5,33.5 133.5,28.5C 134.589,26.8829 136.256,26.0496 138.5,26C 136.21,24.2228 134.543,22.0562 133.5,19.5C 134.962,20.4577 136.295,21.6244 137.5,23C 139.899,23.711 142.232,23.5443 144.5,22.5C 148.381,18.5424 148.381,14.5424 144.5,10.5 Z M 139.5,31.5 C 140.944,28.2867 142.777,27.9534 145,30.5C 145.5,42.4954 145.667,54.4954 145.5,66.5C 142.167,66.5 138.833,66.5 135.5,66.5C 134.8,54.5378 136.134,42.8711 139.5,31.5 Z"/></g>
<g><path style="opacity:0.914" fill="#b74e6b" d="M 136.5,10.5 C 134.129,12.9966 133.129,15.9966 133.5,19.5C 132.378,17.7116 132.211,15.7116 133,13.5C 133.422,11.5743 134.589,10.5743 136.5,10.5 Z"/></g>
<g><path style="opacity:0.993" fill="#6c309d" d="M 59.5,17.5 C 60.1667,19.5 60.8333,21.5 61.5,23.5C 61.5,24.5 61.5,25.5 61.5,26.5C 60.6554,27.6715 59.9887,29.0048 59.5,30.5C 56.31,44.2575 52.6433,57.9242 48.5,71.5C 41.5237,72.6644 34.5237,72.8311 27.5,72C 26.6195,71.2917 25.9528,70.4584 25.5,69.5C 31.8333,68.8333 38.1667,68.1667 44.5,67.5C 48.5291,51.3808 52.8624,35.3808 57.5,19.5C 58.1667,18.8333 58.8333,18.1667 59.5,17.5 Z"/></g>
<g><path style="opacity:0.99" fill="#c03d4c" d="M 182.5,17.5 C 183.458,17.9528 184.292,18.6195 185,19.5C 187.211,27.0505 189.711,34.3838 192.5,41.5C 192.41,44.1522 193.076,46.4855 194.5,48.5C 195.009,53.1598 196.342,57.4931 198.5,61.5C 197.976,65.4276 198.976,68.761 201.5,71.5C 196.25,72.6148 190.917,72.7815 185.5,72C 184.5,71 183.5,70 182.5,69C 177.511,68.5007 172.511,68.3341 167.5,68.5C 167.737,69.791 167.404,70.791 166.5,71.5C 161.156,71.666 155.823,71.4994 150.5,71C 149.426,70.2613 148.759,69.2613 148.5,68C 149.406,65.2094 150.073,62.3761 150.5,59.5C 151.167,59.1667 151.833,58.8333 152.5,58.5C 151.701,61.4299 151.368,64.4299 151.5,67.5C 155.226,67.8226 158.893,67.4892 162.5,66.5C 162.833,65.8333 163.167,65.1667 163.5,64.5C 169.833,63.1667 176.167,63.1667 182.5,64.5C 182.833,65.1667 183.167,65.8333 183.5,66.5C 187.445,67.4909 191.445,67.8242 195.5,67.5C 191.241,51.0566 186.575,34.7232 181.5,18.5C 181.5,17.8333 181.833,17.5 182.5,17.5 Z"/></g>
<g><path style="opacity:0.004" fill="#f5f3ea" d="M 196.5,17.5 C 196.665,20.5184 196.498,23.5184 196,26.5C 195.195,23.3035 195.362,20.3035 196.5,17.5 Z"/></g>
<g><path style="opacity:0.994" fill="#ce3837" d="M 216.5,72.5 C 211.305,72.8205 206.305,72.4872 201.5,71.5C 198.976,68.761 197.976,65.4276 198.5,61.5C 198.5,46.5 198.5,31.5 198.5,16.5C 203.511,16.3341 208.511,16.5007 213.5,17C 214.333,17.8333 215.167,18.6667 216,19.5C 216.5,37.1635 216.667,54.8302 216.5,72.5 Z M 205.5,18.5 C 205.833,18.5 206.167,18.5 206.5,18.5C 207.209,19.404 208.209,19.7373 209.5,19.5C 211.202,31.4713 210.535,43.3046 207.5,55C 207.801,59.4474 208.301,59.2807 209,54.5C 209.667,57.5 209.667,60.5 209,63.5C 208.667,63.1667 208.333,62.8333 208,62.5C 207.626,63.4162 207.126,64.2496 206.5,65C 204.899,65.2734 203.399,65.7734 202,66.5C 200.365,50.9258 200.032,35.2591 201,19.5C 201.333,19.8333 201.667,20.1667 202,20.5C 203.302,19.9152 204.469,19.2485 205.5,18.5 Z"/></g>
<g><path style="opacity:0.983" fill="#7237a0" d="M 36.5,43.5 C 36.8333,43.5 37.1667,43.5 37.5,43.5C 36.7761,46.8426 35.9428,50.176 35,53.5C 31.654,41.7818 28.154,30.1151 24.5,18.5C 22.3333,18.1667 20.1667,17.8333 18,17.5C 15.3897,17.5332 13.223,18.1999 11.5,19.5C 10.596,18.791 10.2627,17.791 10.5,16.5C 15.5111,16.3341 20.5111,16.5007 25.5,17C 26.6667,18.1667 27.8333,19.3333 29,20.5C 31.4889,28.7889 33.8222,37.1222 36,45.5C 36.4643,44.9056 36.631,44.2389 36.5,43.5 Z"/></g>
<g><path style="opacity:0.008" fill="#f4ece4" d="M 199.5,18.5 C 201.5,18.5 203.5,18.5 205.5,18.5C 204.469,19.2485 203.302,19.9152 202,20.5C 201.667,20.1667 201.333,19.8333 201,19.5C 200.032,35.2591 200.365,50.9258 202,66.5C 203.399,65.7734 204.899,65.2734 206.5,65C 207.126,64.2496 207.626,63.4162 208,62.5C 208.333,62.8333 208.667,63.1667 209,63.5C 209.667,60.5 209.667,57.5 209,54.5C 208.301,59.2807 207.801,59.4474 207.5,55C 210.535,43.3046 211.202,31.4713 209.5,19.5C 208.209,19.7373 207.209,19.404 206.5,18.5C 208.167,18.5 209.833,18.5 211.5,18.5C 211.5,34.8333 211.5,51.1667 211.5,67.5C 207.5,67.5 203.5,67.5 199.5,67.5C 199.5,51.1667 199.5,34.8333 199.5,18.5 Z M 205.5,18.5 C 205.833,18.5 206.167,18.5 206.5,18.5C 207.209,19.404 208.209,19.7373 209.5,19.5C 211.202,31.4713 210.535,43.3046 207.5,55C 207.801,59.4474 208.301,59.2807 209,54.5C 209.667,57.5 209.667,60.5 209,63.5C 208.667,63.1667 208.333,62.8333 208,62.5C 207.626,63.4162 207.126,64.2496 206.5,65C 204.899,65.2734 203.399,65.7734 202,66.5C 200.365,50.9258 200.032,35.2591 201,19.5C 201.333,19.8333 201.667,20.1667 202,20.5C 203.302,19.9152 204.469,19.2485 205.5,18.5 Z"/></g>
<g><path style="opacity:0.551" fill="#e7ada8" d="M 199.5,18.5 C 203.634,17.5151 207.968,17.1818 212.5,17.5C 212.83,34.3417 212.497,51.0084 211.5,67.5C 211.5,51.1667 211.5,34.8333 211.5,18.5C 209.833,18.5 208.167,18.5 206.5,18.5C 206.167,18.5 205.833,18.5 205.5,18.5C 203.5,18.5 201.5,18.5 199.5,18.5 Z"/></g>
<g><path style="opacity:0.004" fill="#f5f3ea" d="M 218.5,18.5 C 219.833,19.1667 219.833,19.1667 218.5,18.5 Z"/></g>
<g><path style="opacity:0.007" fill="#f4e9e1" d="M 218.5,18.5 C 217.167,18.8333 217.167,19.1667 218.5,19.5C 218.338,21.5273 218.505,23.5273 219,25.5C 219.333,24.8333 219.667,24.1667 220,23.5C 220.877,34.895 220.377,46.2284 218.5,57.5C 219.17,62.5063 219.837,67.5063 220.5,72.5C 219.5,72.5 218.5,72.5 217.5,72.5C 217.167,72.5 216.833,72.5 216.5,72.5C 216.667,54.8302 216.5,37.1635 216,19.5C 215.167,18.6667 214.333,17.8333 213.5,17C 208.511,16.5007 203.511,16.3341 198.5,16.5C 198.5,31.5 198.5,46.5 198.5,61.5C 196.342,57.4931 195.009,53.1598 194.5,48.5C 195.41,50.0188 196.243,51.6854 197,53.5C 197.826,41.3262 197.66,29.3262 196.5,17.5C 199.087,16.1836 202.087,15.517 205.5,15.5C 208.5,15.6667 211.5,15.8333 214.5,16C 216.066,16.6082 217.4,17.4415 218.5,18.5 Z"/></g>
<g><path style="opacity:0.004" fill="#f5f3ea" d="M -0.5,20.5 C 0.833333,22.5 0.833333,24.5 -0.5,26.5C -0.5,24.5 -0.5,22.5 -0.5,20.5 Z"/></g>
<g><path style="opacity:0.941" fill="#9061b0" d="M 11.5,19.5 C 13.8315,26.1551 16.1649,32.8218 18.5,39.5C 18.7424,43.479 19.7424,47.1456 21.5,50.5C 22.2148,55.9796 23.5481,61.3129 25.5,66.5C 31.7985,67.4963 38.1318,67.8297 44.5,67.5C 38.1667,68.1667 31.8333,68.8333 25.5,69.5C 24.8333,68.8333 24.1667,68.1667 23.5,67.5C 22.6106,61.1808 20.9439,55.1808 18.5,49.5C 16.1667,39.5 13.8333,29.5 11.5,19.5 Z"/></g>
<g><path style="opacity:0.102" fill="#ebe2e4" d="M 61.5,23.5 C 66.4211,25.3536 66.4211,26.3536 61.5,26.5C 61.5,25.5 61.5,24.5 61.5,23.5 Z"/></g>
<g><path style="opacity:0.022" fill="#f3efe8" d="M 103.5,26.5 C 103.5,31.1667 103.5,35.8333 103.5,40.5C 99.0497,40.1416 95.5497,41.8083 93,45.5C 92.5003,52.8258 92.3337,60.1591 92.5,67.5C 88.5,67.5 84.5,67.5 80.5,67.5C 80.5,54.1667 80.5,40.8333 80.5,27.5C 84.5,27.5 88.5,27.5 92.5,27.5C 92.3433,28.8734 92.51,30.2068 93,31.5C 95.8046,28.3475 99.3046,26.6808 103.5,26.5 Z M 99.5,28.5 C 100.239,28.369 100.906,28.5357 101.5,29C 100.603,32.6793 100.27,36.1793 100.5,39.5C 99.1881,36.8407 97.5215,34.3407 95.5,32C 97.5444,31.5017 98.8777,30.335 99.5,28.5 Z M 87.5,30.5 C 89.2252,30.8425 89.7252,31.8425 89,33.5C 87.9614,32.7562 87.4614,31.7562 87.5,30.5 Z M 90.5,43.5 C 91.5735,44.2506 91.7401,45.2506 91,46.5C 89.2716,45.6477 89.105,44.6477 90.5,43.5 Z"/></g>
<g><path style="opacity:0.049" fill="#f5f3ea" d="M 61.5,27.5 C 65.5,27.5 69.5,27.5 73.5,27.5C 73.5,40.8333 73.5,54.1667 73.5,67.5C 69.5,67.5 65.5,67.5 61.5,67.5C 61.5,54.1667 61.5,40.8333 61.5,27.5 Z M 65.5,34.5 C 66.4345,33.4324 66.7678,32.099 66.5,30.5C 68.1238,30.3601 69.2904,31.0267 70,32.5C 70.3742,31.5838 70.8742,30.7504 71.5,30C 69.3863,28.482 67.053,28.1487 64.5,29C 65.4061,30.6995 65.7394,32.5328 65.5,34.5 Z M 64.5,41.5 C 63.7951,49.8448 63.4617,58.1781 63.5,66.5C 64.5,66.5 65.5,66.5 66.5,66.5C 66.6664,58.4931 66.4997,50.4931 66,42.5C 65.6174,41.944 65.1174,41.6107 64.5,41.5 Z"/></g>
<g><path style="opacity:0.897" fill="#9e538e" d="M 103.5,25.5 C 103.5,25.8333 103.5,26.1667 103.5,26.5C 99.3046,26.6808 95.8046,28.3475 93,31.5C 92.51,30.2068 92.3433,28.8734 92.5,27.5C 88.5,27.5 84.5,27.5 80.5,27.5C 80.5,40.8333 80.5,54.1667 80.5,67.5C 80.1667,67.5 79.8333,67.5 79.5,67.5C 79.5,53.8333 79.5,40.1667 79.5,26.5C 84.6483,25.9264 89.4816,26.593 94,28.5C 96.7568,26.2051 99.9235,25.2051 103.5,25.5 Z"/></g>
<g><path style="opacity:0.035" fill="#f2eae5" d="M 123.5,27.5 C 125.833,27.5 128.167,27.5 130.5,27.5C 130.5,31.1667 130.5,34.8333 130.5,38.5C 128.167,38.5 125.833,38.5 123.5,38.5C 123.5,48.1667 123.5,57.8333 123.5,67.5C 119.5,67.5 115.5,67.5 111.5,67.5C 111.5,57.8333 111.5,48.1667 111.5,38.5C 110.167,38.5 108.833,38.5 107.5,38.5C 107.5,34.8333 107.5,31.1667 107.5,27.5C 108.833,27.5 110.167,27.5 111.5,27.5C 111.5,22.5 111.5,17.5 111.5,12.5C 115.5,12.5 119.5,12.5 123.5,12.5C 123.5,17.5 123.5,22.5 123.5,27.5 Z M 123.5,27.5 C 122.167,27.5 120.833,27.5 119.5,27.5C 120.436,19.13 118.936,18.4633 115,25.5C 114.667,24.8333 114.333,24.1667 114,23.5C 113.316,24.7839 113.483,25.9505 114.5,27C 112.445,27.6872 110.779,28.8539 109.5,30.5C 110.942,33.0496 112.108,35.7163 113,38.5C 113.308,37.6919 113.808,37.0253 114.5,36.5C 115.873,39.1896 117.207,41.8563 118.5,44.5C 118.333,45.1667 118.167,45.8333 118,46.5C 117.333,45.1667 116.667,43.8333 116,42.5C 115.683,44.3008 115.016,44.6341 114,43.5C 113.5,51.1594 113.334,58.8261 113.5,66.5C 116.5,66.5 119.5,66.5 122.5,66.5C 123.04,59.6102 122.373,52.9435 120.5,46.5C 121.4,44.7613 122.067,42.928 122.5,41C 122.167,40.1667 121.833,39.3333 121.5,38.5C 120.604,39.5063 119.938,39.5063 119.5,38.5C 122.428,37.5159 125.428,37.1826 128.5,37.5C 128.726,34.7508 128.393,32.0841 127.5,29.5C 126.051,28.8281 124.718,28.1614 123.5,27.5 Z"/></g>
<g><path style="opacity:0.084" fill="#f4eee8" d="M 134.5,27.5 C 138.5,27.5 142.5,27.5 146.5,27.5C 146.5,40.8333 146.5,54.1667 146.5,67.5C 142.5,67.5 138.5,67.5 134.5,67.5C 134.5,54.1667 134.5,40.8333 134.5,27.5 Z M 139.5,31.5 C 136.134,42.8711 134.8,54.5378 135.5,66.5C 138.833,66.5 142.167,66.5 145.5,66.5C 145.667,54.4954 145.5,42.4954 145,30.5C 142.777,27.9534 140.944,28.2867 139.5,31.5 Z"/></g>
<g><path style="opacity:0.788" fill="#965aa0" d="M 77.5,29.5 C 77.8333,29.5 78.1667,29.5 78.5,29.5C 78.5,43.8333 78.5,58.1667 78.5,72.5C 73.3054,72.8205 68.3054,72.4872 63.5,71.5C 68.1667,71.5 72.8333,71.5 77.5,71.5C 77.5,57.5 77.5,43.5 77.5,29.5 Z"/></g>
<g><path style="opacity:0.816" fill="#9062b1" d="M 59.5,16.5 C 59.5,16.8333 59.5,17.1667 59.5,17.5C 58.8333,18.1667 58.1667,18.8333 57.5,19.5C 55.9522,18.2057 53.9522,17.5391 51.5,17.5C 49.2412,17.5323 47.0745,17.8656 45,18.5C 42.762,27.0359 40.262,35.3692 37.5,43.5C 37.1667,43.5 36.8333,43.5 36.5,43.5C 38.9926,34.8681 41.4926,26.2014 44,17.5C 49.0717,16.5286 54.2384,16.1953 59.5,16.5 Z"/></g>
<g><path style="opacity:0.018" fill="#f3eee8" d="M 79.5,26.5 C 79.5,40.1667 79.5,53.8333 79.5,67.5C 79.8588,69.371 80.8588,70.871 82.5,72C 87.1548,72.4992 91.8215,72.6658 96.5,72.5C 96.3337,65.1591 96.5003,57.8258 97,50.5C 97.7589,48.9371 98.9256,47.9371 100.5,47.5C 100.611,46.8826 100.944,46.3826 101.5,46C 103.473,45.5045 105.473,45.3379 107.5,45.5C 107.5,44.5 107.5,43.5 107.5,42.5C 108.5,42.5 109.5,42.5 110.5,42.5C 110.334,51.5062 110.5,60.5062 111,69.5C 111.833,70.3333 112.667,71.1667 113.5,72C 118.489,72.4993 123.489,72.6659 128.5,72.5C 128.5,62.8333 128.5,53.1667 128.5,43.5C 130.167,43.5 131.833,43.5 133.5,43.5C 133.334,52.1731 133.5,60.8397 134,69.5C 135.045,70.3734 135.878,71.3734 136.5,72.5C 128.225,73.8007 119.892,73.8007 111.5,72.5C 111.192,71.6919 110.692,71.0253 110,70.5C 109.667,62.1667 109.333,53.8333 109,45.5C 108.667,48.5 108.333,51.5 108,54.5C 107.529,52.7536 106.862,51.087 106,49.5C 105.751,50.624 105.251,51.624 104.5,52.5C 103.167,51.8333 101.833,51.1667 100.5,50.5C 98.0767,57.0737 98.0767,63.5737 100.5,70C 99.6634,71.0113 99.33,72.1779 99.5,73.5C 91.8261,73.3336 84.1594,73.5003 76.5,74C 84.8822,74.8029 93.2155,74.6362 101.5,73.5C 103.385,74.6094 105.385,75.4427 107.5,76C 103.511,77.3314 99.5115,78.6647 95.5,80C 96.5,80.3333 97.5,80.6667 98.5,81C 87.1667,81.6667 75.8333,81.6667 64.5,81C 66.1667,80.6667 67.8333,80.3333 69.5,80C 49.9219,77.1182 30.2552,75.9515 10.5,76.5C 10.0025,72.7806 10.8358,69.4473 13,66.5C 13.1802,63.0445 13.8468,59.7111 15,56.5C 16.2755,58.8583 17.4422,61.1916 18.5,63.5C 17.766,67.44 19.0993,68.7734 22.5,67.5C 22.8333,70.1667 23.1667,70.1667 23.5,67.5C 24.1667,68.1667 24.8333,68.8333 25.5,69.5C 25.9528,70.4584 26.6195,71.2917 27.5,72C 34.5237,72.8311 41.5237,72.6644 48.5,71.5C 52.6433,57.9242 56.31,44.2575 59.5,30.5C 60.331,43.3269 60.831,56.3269 61,69.5C 61.7083,70.3805 62.5416,71.0472 63.5,71.5C 68.3054,72.4872 73.3054,72.8205 78.5,72.5C 78.5,58.1667 78.5,43.8333 78.5,29.5C 78.2627,28.209 78.596,27.209 79.5,26.5 Z M 64.5,41.5 C 63.7951,49.8448 63.4617,58.1781 63.5,66.5C 64.5,66.5 65.5,66.5 66.5,66.5C 66.6664,58.4931 66.4997,50.4931 66,42.5C 65.6174,41.944 65.1174,41.6107 64.5,41.5 Z M 90.5,43.5 C 89.105,44.6477 89.2716,45.6477 91,46.5C 91.7401,45.2506 91.5735,44.2506 90.5,43.5 Z M 130.5,44.5 C 131.653,50.6529 131.82,56.9863 131,63.5C 129.891,61.2003 129.391,58.7003 129.5,56C 129.757,52.1518 130.091,48.3185 130.5,44.5 Z M 104.5,46.5 C 105.773,47.0768 105.773,47.7435 104.5,48.5C 103.537,48.0302 103.537,47.3635 104.5,46.5 Z M 28.5,63.5 C 26.6325,62.2139 26.4658,60.8805 28,59.5C 29.7683,60.6819 29.9349,62.0152 28.5,63.5 Z M 18.5,63.5 C 20.3407,64.4023 21.674,65.7356 22.5,67.5C 19.0993,68.7734 17.766,67.44 18.5,63.5 Z M 56.5,68.5 C 55.5416,68.9528 54.7083,69.6195 54,70.5C 53.6753,68.4473 54.0087,66.4473 55,64.5C 55.7914,65.745 56.2914,67.0783 56.5,68.5 Z"/></g>
<g><path style="opacity:0.004" fill="#f5f3ea" d="M 195.5,33.5 C 196.833,34.1667 196.833,34.1667 195.5,33.5 Z"/></g>
<g><path style="opacity:0.004" fill="#f5f3ea" d="M -0.5,35.5 C 0.833333,38.1667 0.833333,40.8333 -0.5,43.5C -0.5,40.8333 -0.5,38.1667 -0.5,35.5 Z"/></g>
<g><path style="opacity:0.906" fill="#cb6a76" d="M 182.5,17.5 C 181.833,17.5 181.5,17.8333 181.5,18.5C 176.25,17.3852 170.917,17.2185 165.5,18C 163.958,21.3338 162.958,24.8338 162.5,28.5C 158.992,38.3569 155.659,48.3569 152.5,58.5C 151.833,58.8333 151.167,59.1667 150.5,59.5C 150.5,49.5 150.5,39.5 150.5,29.5C 150.833,29.5 151.167,29.5 151.5,29.5C 151.334,38.5062 151.5,47.5062 152,56.5C 154.145,49.9012 155.978,43.2345 157.5,36.5C 159.101,33.4498 160.101,30.1165 160.5,26.5C 162.277,23.4954 163.277,20.1621 163.5,16.5C 170.022,16.1765 176.355,16.5098 182.5,17.5 Z M 157.5,36.5 C 157.631,35.7611 157.464,35.0944 157,34.5C 156.107,35.7112 155.274,35.7112 154.5,34.5C 153.902,33.2054 153.402,31.8721 153,30.5C 152.245,33.3033 152.578,35.9699 154,38.5C 155.113,37.695 156.279,37.0283 157.5,36.5 Z M 152.5,40.5 C 152.336,43.1873 152.503,45.854 153,48.5C 153.601,46.8632 154.101,45.1966 154.5,43.5C 154.547,41.9623 153.88,40.9623 152.5,40.5 Z"/></g>
<g><path style="opacity:0.994" fill="#8b2f79" d="M 103.5,25.5 C 103.833,25.5 104.167,25.5 104.5,25.5C 104.334,30.5111 104.501,35.5111 105,40.5C 105.708,41.3805 106.542,42.0472 107.5,42.5C 107.5,43.5 107.5,44.5 107.5,45.5C 105.473,45.3379 103.473,45.5045 101.5,46C 100.944,46.3826 100.611,46.8826 100.5,47.5C 98.9256,47.9371 97.7589,48.9371 97,50.5C 96.5003,57.8258 96.3337,65.1591 96.5,72.5C 91.8215,72.6658 87.1548,72.4992 82.5,72C 80.8588,70.871 79.8588,69.371 79.5,67.5C 79.8333,67.5 80.1667,67.5 80.5,67.5C 84.5,67.5 88.5,67.5 92.5,67.5C 92.3337,60.1591 92.5003,52.8258 93,45.5C 95.5497,41.8083 99.0497,40.1416 103.5,40.5C 103.5,35.8333 103.5,31.1667 103.5,26.5C 103.5,26.1667 103.5,25.8333 103.5,25.5 Z"/></g>
<g><path style="opacity:0.02" fill="#f2eee9" d="M 37.5,43.5 C 40.262,35.3692 42.762,27.0359 45,18.5C 47.0745,17.8656 49.2412,17.5323 51.5,17.5C 53.9522,17.5391 55.9522,18.2057 57.5,19.5C 52.8624,35.3808 48.5291,51.3808 44.5,67.5C 38.1318,67.8297 31.7985,67.4963 25.5,66.5C 23.5481,61.3129 22.2148,55.9796 21.5,50.5C 19.7424,47.1456 18.7424,43.479 18.5,39.5C 16.1649,32.8218 13.8315,26.1551 11.5,19.5C 13.223,18.1999 15.3897,17.5332 18,17.5C 20.1667,17.8333 22.3333,18.1667 24.5,18.5C 28.154,30.1151 31.654,41.7818 35,53.5C 35.9428,50.176 36.7761,46.8426 37.5,43.5 Z M 41.5,42.5 C 43.3786,42.3932 43.7119,42.8932 42.5,44C 44.1371,45.951 45.6371,45.7843 47,43.5C 48.951,45.1371 48.7843,46.6371 46.5,48C 47.5976,49.9732 47.4309,52.1398 46,54.5C 44.1918,54.1119 42.5252,54.1119 41,54.5C 39.2085,53.0881 38.0418,51.2548 37.5,49C 38.2529,47.513 39.0862,47.3463 40,48.5C 40.5046,46.4817 41.0046,44.4817 41.5,42.5 Z M 30.5,46.5 C 30.4861,49.2937 29.3194,51.9604 27,54.5C 25.9326,53.8095 24.7659,53.3095 23.5,53C 24.4506,52.2825 24.6172,51.4491 24,50.5C 23.2303,51.5981 22.397,51.5981 21.5,50.5C 21.3932,48.6214 21.8932,48.2881 23,49.5C 23.5,49 24,48.5 24.5,48C 23.9984,44.9805 22.3318,42.9805 19.5,42C 21.4812,41.3946 21.8146,40.3946 20.5,39C 21.5,38.3333 22.5,38.3333 23.5,39C 26.0884,41.4162 28.4218,43.9162 30.5,46.5 Z M 40.5,37.5 C 42.337,37.6395 42.6704,38.3061 41.5,39.5C 40.7025,39.0431 40.3691,38.3764 40.5,37.5 Z M 36.5,33.5 C 35.105,34.6477 35.2716,35.6477 37,36.5C 37.7401,35.2506 37.5735,34.2506 36.5,33.5 Z M 44.5,32.5 C 45.5063,32.0623 45.5063,31.3957 44.5,30.5C 46.6494,27.6045 46.9827,24.4379 45.5,21C 49.7125,18.4214 51.0459,19.2548 49.5,23.5C 50.5,23.5 51.5,23.5 52.5,23.5C 52.67,22.1779 52.3366,21.0113 51.5,20C 53.4731,19.4622 54.4731,20.2956 54.5,22.5C 53.9952,26.3457 52.3285,29.5124 49.5,32C 50.3567,32.6891 51.0233,33.5224 51.5,34.5C 50.086,35.624 48.586,36.624 47,37.5C 47.1953,35.8739 47.1953,34.2072 47,32.5C 46.0228,33.7736 45.1894,33.7736 44.5,32.5 Z M 25.5,27.5 C 23.6544,29.3248 21.8211,30.9915 20,32.5C 18.7949,31.9288 17.6283,31.2621 16.5,30.5C 16.6236,29.8933 16.9569,29.56 17.5,29.5C 18.0032,25.4973 16.6699,22.3306 13.5,20C 16.5,19.3333 19.5,19.3333 22.5,20C 23.6422,22.4499 24.6422,24.9499 25.5,27.5 Z M 28.5,63.5 C 29.9349,62.0152 29.7683,60.6819 28,59.5C 26.4658,60.8805 26.6325,62.2139 28.5,63.5 Z"/></g>
<g><path style="opacity:0.031" fill="#f4ede6" d="M 181.5,18.5 C 186.575,34.7232 191.241,51.0566 195.5,67.5C 191.445,67.8242 187.445,67.4909 183.5,66.5C 183.167,65.8333 182.833,65.1667 182.5,64.5C 176.167,63.1667 169.833,63.1667 163.5,64.5C 163.167,65.1667 162.833,65.8333 162.5,66.5C 158.893,67.4892 155.226,67.8226 151.5,67.5C 151.368,64.4299 151.701,61.4299 152.5,58.5C 155.659,48.3569 158.992,38.3569 162.5,28.5C 162.958,24.8338 163.958,21.3338 165.5,18C 170.917,17.2185 176.25,17.3852 181.5,18.5 Z M 176.5,50.5 C 176.253,52.9752 175.587,52.9752 174.5,50.5C 174.97,49.537 175.637,49.537 176.5,50.5 Z M 178.5,48.5 C 179.305,46.7872 180.305,45.1206 181.5,43.5C 182.903,43.6398 184.403,43.6398 186,43.5C 189.111,46.3335 189.277,49.3335 186.5,52.5C 184.942,47.3055 183.942,47.3055 183.5,52.5C 180.6,52.5922 178.933,51.2589 178.5,48.5 Z M 174.5,31.5 C 174.351,32.552 174.517,33.552 175,34.5C 176.927,33.2376 176.76,32.2376 174.5,31.5 Z M 168.5,45.5 C 167.075,43.9689 166.409,44.3023 166.5,46.5C 164.834,45.3336 163.167,45.3336 161.5,46.5C 161.846,47.6956 162.346,47.6956 163,46.5C 164.145,49.4318 164.978,52.4318 165.5,55.5C 173.388,55.8194 181.222,55.8194 189,55.5C 190.5,55.6667 191.333,56.5 191.5,58C 190.767,59.7659 190.433,61.5992 190.5,63.5C 181.176,62.2785 171.842,62.2785 162.5,63.5C 161.05,67.3389 160.05,67.3389 159.5,63.5C 157.005,64.1989 154.672,65.1989 152.5,66.5C 152.5,65.1667 152.5,63.8333 152.5,62.5C 154.103,62.6882 155.437,62.1882 156.5,61C 155.262,61.0773 154.262,60.9106 153.5,60.5C 156.23,58.7179 156.897,56.3846 155.5,53.5C 157.162,50.6727 158.829,47.8393 160.5,45C 159.692,44.6924 159.025,44.1924 158.5,43.5C 159.806,42.0878 160.64,40.4211 161,38.5C 161.75,37.8742 162.584,37.3742 163.5,37C 163.943,35.4815 163.276,34.3148 161.5,33.5C 163.709,32.937 165.209,31.6036 166,29.5C 166.75,30.1258 167.584,30.6258 168.5,31C 166.18,32.4876 166.013,34.3209 168,36.5C 168.906,33.8792 169.406,34.0459 169.5,37C 169.055,38.4469 168.388,39.7803 167.5,41C 168.148,42.4397 168.481,43.9397 168.5,45.5 Z M 180.5,22.5 C 180.196,21.8501 179.863,21.1835 179.5,20.5C 175.555,19.5091 171.555,19.1758 167.5,19.5C 166.671,22.4686 166.505,25.4686 167,28.5C 167.805,26.0989 168.638,26.2656 169.5,29C 172.656,29.6029 175.656,29.1029 178.5,27.5C 179.215,29.778 180.382,31.1113 182,31.5C 180.782,28.6118 180.282,25.6118 180.5,22.5 Z"/></g>
<g><path style="opacity:0.996" fill="#cc6670" d="M 175.5,42.5 C 176.5,44.5 177.5,46.5 178.5,48.5C 178.357,50.2624 178.691,51.9291 179.5,53.5C 175.217,54.4922 170.884,54.8256 166.5,54.5C 166.263,53.209 166.596,52.209 167.5,51.5C 168.552,53.256 170.219,53.9227 172.5,53.5C 174.167,53.5 175.833,53.5 177.5,53.5C 177.737,52.209 177.404,51.209 176.5,50.5C 176.598,48.4471 175.931,46.7804 174.5,45.5C 175.11,44.609 175.443,43.609 175.5,42.5 Z"/></g>
<g><path style="opacity:0.4" fill="#edd1ce" d="M 174.5,45.5 C 175.931,46.7804 176.598,48.4471 176.5,50.5C 177.404,51.209 177.737,52.209 177.5,53.5C 175.833,53.5 174.167,53.5 172.5,53.5C 173.167,50.8333 173.833,48.1667 174.5,45.5 Z M 176.5,50.5 C 175.637,49.537 174.97,49.537 174.5,50.5C 175.587,52.9752 176.253,52.9752 176.5,50.5 Z"/></g>
<g><path style="opacity:0.992" fill="#bf3a49" d="M 175.5,42.5 C 175.443,43.609 175.11,44.609 174.5,45.5C 173.833,48.1667 173.167,50.8333 172.5,53.5C 170.219,53.9227 168.552,53.256 167.5,51.5C 167.833,49.5 168.167,47.5 168.5,45.5C 169.87,41.5711 171.37,37.5711 173,33.5C 174.302,36.3751 175.135,39.3751 175.5,42.5 Z"/></g>
<g><path style="opacity:0.041" fill="#f3eee9" d="M 18.5,49.5 C 20.9439,55.1808 22.6106,61.1808 23.5,67.5C 23.1667,67.5 22.8333,67.5 22.5,67.5C 21.674,65.7356 20.3407,64.4023 18.5,63.5C 21.3696,59.8849 21.0363,56.5516 17.5,53.5C 18.2458,52.2638 18.5792,50.9305 18.5,49.5 Z"/></g>
<g><path style="opacity:0.004" fill="#f5f3ea" d="M 103.5,66.5 C 107.276,66.4692 107.443,67.1359 104,68.5C 102.316,68.3166 102.15,67.6499 103.5,66.5 Z"/></g>
<g><path style="opacity:0.004" fill="#f5f3ea" d="M 107.5,66.5 C 108.525,66.8966 108.692,67.5632 108,68.5C 107.536,67.9056 107.369,67.2389 107.5,66.5 Z"/></g>
<g><path style="opacity:0.014" fill="#f5f1ea" d="M 201.5,71.5 C 206.305,72.4872 211.305,72.8205 216.5,72.5C 216.833,72.5 217.167,72.5 217.5,72.5C 205.342,74.606 193.009,74.606 180.5,72.5C 176.572,73.9846 172.572,74.818 168.5,75C 168.833,74.6667 169.167,74.3333 169.5,74C 158.326,73.8305 147.326,73.3305 136.5,72.5C 146.681,72.8274 156.681,72.494 166.5,71.5C 167.404,70.791 167.737,69.791 167.5,68.5C 172.511,68.3341 177.511,68.5007 182.5,69C 183.5,70 184.5,71 185.5,72C 190.917,72.7815 196.25,72.6148 201.5,71.5 Z"/></g>
<g><path style="opacity:0.004" fill="#f5f3ea" d="M 107.5,72.5 C 106.833,71.1667 106.833,71.1667 107.5,72.5 Z"/></g>
<g><path style="opacity:0.004" fill="#f5f3ea" d="M 107.5,72.5 C 108.833,73.1667 108.833,73.1667 107.5,72.5 Z"/></g>
<g><path style="opacity:0.004" fill="#f5f3ea" d="M 160.5,75.5 C 161.601,74.4017 162.934,74.235 164.5,75C 163.207,75.49 161.873,75.6567 160.5,75.5 Z"/></g>
<g><path style="opacity:0.004" fill="#f5f3ea" d="M -0.5,81.5 C 0.338246,81.8417 0.67158,82.5084 0.5,83.5C 0.166667,83.5 -0.166667,83.5 -0.5,83.5C -0.5,82.8333 -0.5,82.1667 -0.5,81.5 Z"/></g>
</svg>
